<svg width="1000" height="220" viewBox="0 0 1000 220" fill="none" xmlns="http://www.w3.org/2000/svg">
<path d="M242.164 13.7184L242.463 13.6527V11.336H181.361L124.626 144.682L67.8913 11.336H2.04677V13.6527L2.3423 13.7184C13.4952 16.2357 19.1573 19.9898 19.1573 33.5286V192.029C19.1573 205.568 13.4733 209.322 2.32039 211.839L2.0249 211.905V214.229H46.6984V211.912L46.4028 211.847C35.25 209.329 29.5878 205.575 29.5878 192.036V42.7224L102.47 214.229H106.603L181.609 37.9394V195.951C180.653 206.644 175.042 209.946 164.944 212.226L164.644 212.296V214.594H242.463V212.296L242.164 212.226C232.054 209.946 226.308 206.644 225.352 195.951L225.301 33.5286H225.352C225.352 19.9898 231.014 16.2357 242.164 13.7184ZM277.709 118.717C278.982 90.2379 289.208 69.6833 306.37 69.3295C311.664 69.417 316.104 71.1536 319.555 74.4954C326.888 81.6133 330.336 96.4874 329.803 118.717H277.709ZM276.939 126.743H368.147V126.36C367.888 104.583 361.58 87.6439 349.416 76.0131C338.902 65.9621 323.335 60.4312 306.983 60.4312H306.618C298.132 60.4312 287.724 62.4889 280.317 66.2174C271.886 70.1211 264.451 75.9584 258.263 83.6199C248.304 95.9621 242.269 112.642 240.803 131.387C240.755 131.949 240.715 132.511 240.675 133.073C240.635 133.634 240.609 134.138 240.584 134.674C240.533 135.678 240.493 136.684 240.471 137.695C240.434 139.315 240.423 140.946 240.452 142.587C241.441 185.043 264.374 218.972 305.108 218.972C340.861 218.972 361.682 192.835 366.874 157.753L364.25 156.83C355.13 175.685 338.749 187.111 320.106 185.718C294.655 183.813 275.159 158.009 276.928 126.75M471.27 184.277C468.278 191.373 462.036 195.276 453.67 195.276C445.305 195.276 437.658 189.534 432.226 179.1C426.388 167.899 423.316 152.066 423.316 133.31C423.316 94.2729 435.458 69.023 454.25 69.023C462.12 69.023 468.315 72.9267 471.27 79.7381V184.277ZM531.773 212.106C520.62 209.468 514.958 205.539 514.958 191.31V2L447.198 21.9635V24.4079L447.614 24.375C456.961 23.6198 463.302 24.9113 466.983 28.3116C469.865 30.9748 471.27 35.0609 471.27 40.8107V66.7647C464.59 62.4998 456.644 60.4239 447.001 60.4239C427.446 60.4239 409.573 68.6582 396.684 83.6126C383.247 99.1981 376.144 120.497 376.144 145.2C376.14 189.319 397.858 218.972 430.182 218.972C449.092 218.972 464.305 208.611 471.27 191.135V214.594H532.069V212.164L531.773 212.106ZM589.887 27.7461C589.887 13.9701 579.5 3.57972 565.721 3.57972C552.007 3.57972 541.277 14.1963 541.277 27.7461C541.277 41.2959 552.018 51.9124 565.721 51.9124C579.5 51.9124 589.887 41.5221 589.887 27.7461ZM605.881 212.106C594.728 209.468 589.066 205.539 589.066 191.31H589.019V60.8727L528.216 78.3298V80.7012L528.581 80.734C541.737 81.9051 545.338 86.4363 545.338 101.81V214.594H606.191V212.164L605.881 212.106ZM761.682 212.106C750.529 209.468 744.867 205.539 744.867 191.31V60.8727L686.976 77.7534V80.1321L687.319 80.1686C698.074 81.2995 701.182 86.0898 701.182 101.533V183.985C697.596 191.081 690.868 195.294 682.718 195.579C669.5 195.579 662.222 186.652 662.222 170.442V60.8763L601.419 78.3335V80.7012L601.784 80.734C614.94 81.9015 618.544 86.4327 618.544 101.81V171.591C618.513 176.463 618.937 181.326 619.81 186.119L620.905 190.88C626.053 209.326 639.54 218.972 660.671 218.972C678.57 218.972 694.258 207.892 701.167 190.555V214.634H761.97V212.204L761.682 212.106ZM997.884 214.594V212.161L997.588 212.091C985.487 209.3 980.774 204.039 980.774 193.328V104.601C980.774 76.9362 965.235 60.4239 939.208 60.4239C920.237 60.4239 904.239 71.3871 898.081 88.4648C893.189 70.3692 879.11 60.4239 858.293 60.4239C840.007 60.4239 825.677 70.0737 819.529 86.3743V60.8836L758.727 77.6257V80.0117L759.092 80.0445C772.091 81.1974 775.848 85.8599 775.848 100.84V214.594H832.579V212.164L832.28 212.091C822.627 209.822 819.511 205.685 819.511 195.068V93.3681C822.065 87.4031 827.213 80.3364 837.388 80.3364C850.026 80.3364 856.432 89.0923 856.432 106.341V214.594H913.178V212.164L912.879 212.091C903.225 209.822 900.11 205.685 900.11 195.068V104.59C900.134 101.207 899.866 97.8284 899.307 94.4918C902.014 88.0088 907.457 80.3364 918.048 80.3364C930.865 80.3364 937.092 88.8406 937.092 106.341V214.594H997.884Z" fill="black"/>
</svg>
